<svg width="300" height="290.98453567157134" version="1.1" xmlns="http://www.w3.org/2000/svg" xmlns:xlink= "http://www.w3.org/1999/xlink"><g transform="translate(60,36.37306695894642)"><image x="-63" y="-41" width="126" height="83" xlink:href="/game_images/hex_ore_01.png" /><polygon stroke="black" stroke-opacity="0.2" stroke-width="1" fill-opacity="0" points="60,0 30.000000000000007,36.37306695894642 -29.999999999999986,36.373066958946424 -60,5.1433466860539845e-15 -30.00000000000003,-36.37306695894641 29.99999999999996,-36.37306695894644"></polygon><image x="-63" y="31.746133917892834" width="126" height="83" xlink:href="/game_images/hex_grain_03.png" /><polygon stroke="black" stroke-opacity="0.2" stroke-width="1" fill-opacity="0" points="60,72.74613391789283 30.000000000000007,109.11920087683924 -29.999999999999986,109.11920087683926 -60,72.74613391789283 -30.00000000000003,36.373066958946424 29.99999999999996,36.373066958946396"></polygon><image x="-63" y="104.49226783578567" width="126" height="83" xlink:href="/game_images/hex_grain_02.png" /><polygon stroke="black" stroke-opacity="0.2" stroke-width="1" fill-opacity="0" points="60,145.49226783578567 30.000000000000007,181.8653347947321 -29.999999999999986,181.8653347947321 -60,145.49226783578567 -30.00000000000003,109.11920087683926 29.99999999999996,109.11920087683923"></polygon><image x="27" y="-4.626933041053583" width="126" height="83" xlink:href="/game_images/hex_ore_01.png" /><polygon stroke="black" stroke-opacity="0.2" stroke-width="1" fill-opacity="0" points="150,36.37306695894642 120,72.74613391789283 60.000000000000014,72.74613391789285 30,36.373066958946424 59.99999999999997,7.105427357601002e-15 119.99999999999996,-2.1316282072803006e-14"></polygon><image x="27" y="68.11920087683924" width="126" height="83" xlink:href="/game_images/hex_wool_01.png" /><polygon stroke="black" stroke-opacity="0.2" stroke-width="1" fill-opacity="0" points="150,109.11920087683924 120,145.49226783578567 60.000000000000014,145.49226783578567 30,109.11920087683924 59.99999999999997,72.74613391789283 119.99999999999996,72.7461339178928"></polygon><image x="27" y="140.8653347947321" width="126" height="83" xlink:href="/game_images/hex_grain_03.png" /><polygon stroke="black" stroke-opacity="0.2" stroke-width="1" fill-opacity="0" points="150,181.8653347947321 120,218.23840175367852 60.000000000000014,218.23840175367852 30,181.8653347947321 59.99999999999997,145.4922678357857 119.99999999999996,145.49226783578564"></polygon><image x="117" y="31.746133917892834" width="126" height="83" xlink:href="/game_images/hex_grain_03.png" /><polygon stroke="black" stroke-opacity="0.2" stroke-width="1" fill-opacity="0" points="240,72.74613391789283 210,109.11920087683924 150,109.11920087683926 120,72.74613391789283 149.99999999999997,36.373066958946424 209.99999999999997,36.373066958946396"></polygon><image x="117" y="104.49226783578567" width="126" height="83" xlink:href="/game_images/hex_clay_01.png" /><polygon stroke="black" stroke-opacity="0.2" stroke-width="1" fill-opacity="0" points="240,145.49226783578567 210,181.8653347947321 150,181.8653347947321 120,145.49226783578567 149.99999999999997,109.11920087683926 209.99999999999997,109.11920087683923"></polygon><image x="117" y="177.2384017536785" width="126" height="83" xlink:href="/game_images/hex_grain_03.png" /><polygon stroke="black" stroke-opacity="0.2" stroke-width="1" fill-opacity="0" points="240,218.2384017536785 210,254.6114687126249 150,254.6114687126249 120,218.2384017536785 149.99999999999997,181.86533479473206 209.99999999999997,181.86533479473206"></polygon></g></svg>
