<svg width="930" height="1054.8189418094462" version="1.1" xmlns="http://www.w3.org/2000/svg" xmlns:xlink= "http://www.w3.org/1999/xlink"><g transform="translate(60,36.37306695894642)"><image x="27" y="650.088272219982" width="126" height="83" xlink:href="http://localhost:3000//game_images/hex_ore_01.png" /><polygon stroke="black" stroke-opacity="0.3" stroke-width="1" fill-opacity="0" points="150,691.088272219982 120,727.4613391789284 60.000000000000014,727.4613391789284 30,691.088272219982 59.99999999999997,654.7152052610355 119.99999999999996,654.7152052610355"></polygon><image x="117" y="613.7152052610355" width="126" height="83" xlink:href="http://localhost:3000//game_images/hex_lumber_01.png" /><polygon stroke="black" stroke-opacity="0.3" stroke-width="1" fill-opacity="0" points="240,654.7152052610355 210,691.088272219982 150,691.088272219982 120,654.7152052610355 149.99999999999997,618.3421383020891 209.99999999999997,618.3421383020891"></polygon><image x="117" y="686.4613391789284" width="126" height="83" xlink:href="http://localhost:3000//game_images/hex_lumber_01.png" /><polygon stroke="black" stroke-opacity="0.3" stroke-width="1" fill-opacity="0" points="240,727.4613391789284 210,763.8344061378748 150,763.8344061378748 120,727.4613391789284 149.99999999999997,691.088272219982 209.99999999999997,691.088272219982"></polygon><image x="207" y="577.3421383020891" width="126" height="83" xlink:href="http://localhost:3000//game_images/hex_lumber_large_01.png" /><polygon stroke="black" stroke-opacity="0.3" stroke-width="1" fill-opacity="0" points="330,618.3421383020891 300,654.7152052610355 240,654.7152052610355 210,618.3421383020891 239.99999999999997,581.9690713431427 299.99999999999994,581.9690713431427"></polygon><image x="207" y="650.088272219982" width="126" height="83" xlink:href="http://localhost:3000//game_images/hex_grain_02.png" /><polygon stroke="black" stroke-opacity="0.3" stroke-width="1" fill-opacity="0" points="330,691.088272219982 300,727.4613391789284 240,727.4613391789284 210,691.088272219982 239.99999999999997,654.7152052610355 299.99999999999994,654.7152052610355"></polygon><image x="207" y="722.8344061378748" width="126" height="83" xlink:href="http://localhost:3000//game_images/hex_grain_02.png" /><polygon stroke="black" stroke-opacity="0.3" stroke-width="1" fill-opacity="0" points="330,763.8344061378748 300,800.2074730968212 240,800.2074730968212 210,763.8344061378748 239.99999999999997,727.4613391789284 299.99999999999994,727.4613391789284"></polygon><image x="297" y="540.9690713431427" width="126" height="83" xlink:href="http://localhost:3000//game_images/hex_wool_01.png" /><polygon stroke="black" stroke-opacity="0.3" stroke-width="1" fill-opacity="0" points="420,581.9690713431427 390,618.3421383020891 330,618.3421383020891 300,581.9690713431427 330,545.5960043841962 389.99999999999994,545.5960043841962"></polygon><image x="297" y="613.7152052610355" width="126" height="83" xlink:href="http://localhost:3000//game_images/hex_grain_03.png" /><polygon stroke="black" stroke-opacity="0.3" stroke-width="1" fill-opacity="0" points="420,654.7152052610355 390,691.088272219982 330,691.088272219982 300,654.7152052610355 330,618.3421383020891 389.99999999999994,618.3421383020891"></polygon><image x="297" y="686.4613391789284" width="126" height="83" xlink:href="http://localhost:3000//game_images/hex_grain_03.png" /><polygon stroke="black" stroke-opacity="0.3" stroke-width="1" fill-opacity="0" points="420,727.4613391789284 390,763.8344061378748 330,763.8344061378748 300,727.4613391789284 330,691.088272219982 389.99999999999994,691.088272219982"></polygon><image x="297" y="759.2074730968212" width="126" height="83" xlink:href="http://localhost:3000//game_images/hex_grain_02.png" /><polygon stroke="black" stroke-opacity="0.3" stroke-width="1" fill-opacity="0" points="420,800.2074730968212 390,836.5805400557676 330,836.5805400557676 300,800.2074730968212 330,763.8344061378748 389.99999999999994,763.8344061378748"></polygon><image x="387" y="504.59600438419625" width="126" height="83" xlink:href="http://localhost:3000//game_images/hex_wool_01.png" /><polygon stroke="black" stroke-opacity="0.3" stroke-width="1" fill-opacity="0" points="510,545.5960043841962 480,581.9690713431427 420,581.9690713431427 390,545.5960043841962 420,509.2229374252498 479.99999999999994,509.2229374252498"></polygon><image x="387" y="577.3421383020891" width="126" height="83" xlink:href="http://localhost:3000//game_images/hex_wool_01.png" /><polygon stroke="black" stroke-opacity="0.3" stroke-width="1" fill-opacity="0" points="510,618.3421383020891 480,654.7152052610355 420,654.7152052610355 390,618.3421383020891 420,581.9690713431427 479.99999999999994,581.9690713431427"></polygon><image x="387" y="650.088272219982" width="126" height="83" xlink:href="http://localhost:3000//game_images/hex_grain_01.png" /><polygon stroke="black" stroke-opacity="0.3" stroke-width="1" fill-opacity="0" points="510,691.088272219982 480,727.4613391789284 420,727.4613391789284 390,691.088272219982 420,654.7152052610355 479.99999999999994,654.7152052610355"></polygon><image x="387" y="722.8344061378748" width="126" height="83" xlink:href="http://localhost:3000//game_images/hex_grain_01.png" /><polygon stroke="black" stroke-opacity="0.3" stroke-width="1" fill-opacity="0" points="510,763.8344061378748 480,800.2074730968212 420,800.2074730968212 390,763.8344061378748 420,727.4613391789284 479.99999999999994,727.4613391789284"></polygon><image x="387" y="795.5805400557676" width="126" height="83" xlink:href="http://localhost:3000//game_images/hex_grain_01.png" /><polygon stroke="black" stroke-opacity="0.3" stroke-width="1" fill-opacity="0" points="510,836.5805400557676 480,872.9536070147141 420,872.9536070147141 390,836.5805400557676 420,800.2074730968212 479.99999999999994,800.2074730968212"></polygon><image x="477" y="468.2229374252498" width="126" height="83" xlink:href="http://localhost:3000//game_images/hex_grain_02.png" /><polygon stroke="black" stroke-opacity="0.3" stroke-width="1" fill-opacity="0" points="600,509.2229374252498 570,545.5960043841962 510,545.5960043841962 480,509.2229374252498 510,472.8498704663034 570,472.8498704663034"></polygon><image x="477" y="540.9690713431427" width="126" height="83" xlink:href="http://localhost:3000//game_images/hex_grain_03.png" /><polygon stroke="black" stroke-opacity="0.3" stroke-width="1" fill-opacity="0" points="600,581.9690713431427 570,618.3421383020891 510,618.3421383020891 480,581.9690713431427 510,545.5960043841962 570,545.5960043841962"></polygon><image x="477" y="613.7152052610355" width="126" height="83" xlink:href="http://localhost:3000//game_images/hex_wool_01.png" /><polygon stroke="black" stroke-opacity="0.3" stroke-width="1" fill-opacity="0" points="600,654.7152052610355 570,691.088272219982 510,691.088272219982 480,654.7152052610355 510,618.3421383020891 570,618.3421383020891"></polygon><image x="477" y="686.4613391789284" width="126" height="83" xlink:href="http://localhost:3000//game_images/hex_grain_03.png" /><polygon stroke="black" stroke-opacity="0.3" stroke-width="1" fill-opacity="0" points="600,727.4613391789284 570,763.8344061378748 510,763.8344061378748 480,727.4613391789284 510,691.088272219982 570,691.088272219982"></polygon><image x="477" y="759.2074730968212" width="126" height="83" xlink:href="http://localhost:3000//game_images/hex_grain_01.png" /><polygon stroke="black" stroke-opacity="0.3" stroke-width="1" fill-opacity="0" points="600,800.2074730968212 570,836.5805400557676 510,836.5805400557676 480,800.2074730968212 510,763.8344061378748 570,763.8344061378748"></polygon><image x="477" y="831.953607014714" width="126" height="83" xlink:href="http://localhost:3000//game_images/hex_lumber_01.png" /><polygon stroke="black" stroke-opacity="0.3" stroke-width="1" fill-opacity="0" points="600,872.953607014714 570,909.3266739736604 510,909.3266739736604 480,872.953607014714 510,836.5805400557675 570,836.5805400557675"></polygon><image x="567" y="431.8498704663034" width="126" height="83" xlink:href="http://localhost:3000//game_images/hex_lumber_01.png" /><polygon stroke="black" stroke-opacity="0.3" stroke-width="1" fill-opacity="0" points="690,472.8498704663034 660,509.2229374252498 600,509.2229374252498 570,472.8498704663034 600,436.476803507357 660,436.476803507357"></polygon><image x="567" y="504.59600438419625" width="126" height="83" xlink:href="http://localhost:3000//game_images/hex_ore_01.png" /><polygon stroke="black" stroke-opacity="0.3" stroke-width="1" fill-opacity="0" points="690,545.5960043841962 660,581.9690713431427 600,581.9690713431427 570,545.5960043841962 600,509.2229374252498 660,509.2229374252498"></polygon><image x="567" y="577.3421383020891" width="126" height="83" xlink:href="http://localhost:3000//game_images/hex_ore_01.png" /><polygon stroke="black" stroke-opacity="0.3" stroke-width="1" fill-opacity="0" points="690,618.3421383020891 660,654.7152052610355 600,654.7152052610355 570,618.3421383020891 600,581.9690713431427 660,581.9690713431427"></polygon><image x="567" y="650.088272219982" width="126" height="83" xlink:href="http://localhost:3000//game_images/hex_grain_01.png" /><polygon stroke="black" stroke-opacity="0.3" stroke-width="1" fill-opacity="0" points="690,691.088272219982 660,727.4613391789284 600,727.4613391789284 570,691.088272219982 600,654.7152052610355 660,654.7152052610355"></polygon><image x="567" y="722.8344061378748" width="126" height="83" xlink:href="http://localhost:3000//game_images/hex_grain_02.png" /><polygon stroke="black" stroke-opacity="0.3" stroke-width="1" fill-opacity="0" points="690,763.8344061378748 660,800.2074730968212 600,800.2074730968212 570,763.8344061378748 600,727.4613391789284 660,727.4613391789284"></polygon><image x="567" y="795.5805400557676" width="126" height="83" xlink:href="http://localhost:3000//game_images/hex_grain_03.png" /><polygon stroke="black" stroke-opacity="0.3" stroke-width="1" fill-opacity="0" points="690,836.5805400557676 660,872.9536070147141 600,872.9536070147141 570,836.5805400557676 600,800.2074730968212 660,800.2074730968212"></polygon><image x="567" y="868.3266739736604" width="126" height="83" xlink:href="http://localhost:3000//game_images/hex_ore_01.png" /><polygon stroke="black" stroke-opacity="0.3" stroke-width="1" fill-opacity="0" points="690,909.3266739736604 660,945.6997409326068 600,945.6997409326068 570,909.3266739736604 600,872.953607014714 660,872.953607014714"></polygon><image x="657" y="395.476803507357" width="126" height="83" xlink:href="http://localhost:3000//game_images/hex_grain_03.png" /><polygon stroke="black" stroke-opacity="0.3" stroke-width="1" fill-opacity="0" points="780,436.476803507357 750,472.8498704663034 690,472.8498704663034 660,436.476803507357 690,400.10373654841055 750,400.10373654841055"></polygon><image x="657" y="468.2229374252498" width="126" height="83" xlink:href="http://localhost:3000//game_images/hex_grain_01.png" /><polygon stroke="black" stroke-opacity="0.3" stroke-width="1" fill-opacity="0" points="780,509.2229374252498 750,545.5960043841962 690,545.5960043841962 660,509.2229374252498 690,472.8498704663034 750,472.8498704663034"></polygon><image x="657" y="540.9690713431427" width="126" height="83" xlink:href="http://localhost:3000//game_images/hex_ore_01.png" /><polygon stroke="black" stroke-opacity="0.3" stroke-width="1" fill-opacity="0" points="780,581.9690713431427 750,618.3421383020891 690,618.3421383020891 660,581.9690713431427 690,545.5960043841962 750,545.5960043841962"></polygon><image x="657" y="613.7152052610355" width="126" height="83" xlink:href="http://localhost:3000//game_images/hex_grain_02.png" /><polygon stroke="black" stroke-opacity="0.3" stroke-width="1" fill-opacity="0" points="780,654.7152052610355 750,691.088272219982 690,691.088272219982 660,654.7152052610355 690,618.3421383020891 750,618.3421383020891"></polygon><image x="657" y="686.4613391789284" width="126" height="83" xlink:href="http://localhost:3000//game_images/hex_wool_01.png" /><polygon stroke="black" stroke-opacity="0.3" stroke-width="1" fill-opacity="0" points="780,727.4613391789284 750,763.8344061378748 690,763.8344061378748 660,727.4613391789284 690,691.088272219982 750,691.088272219982"></polygon><image x="657" y="759.2074730968212" width="126" height="83" xlink:href="http://localhost:3000//game_images/hex_lumber_01.png" /><polygon stroke="black" stroke-opacity="0.3" stroke-width="1" fill-opacity="0" points="780,800.2074730968212 750,836.5805400557676 690,836.5805400557676 660,800.2074730968212 690,763.8344061378748 750,763.8344061378748"></polygon><image x="657" y="831.953607014714" width="126" height="83" xlink:href="http://localhost:3000//game_images/hex_grain_03.png" /><polygon stroke="black" stroke-opacity="0.3" stroke-width="1" fill-opacity="0" points="780,872.953607014714 750,909.3266739736604 690,909.3266739736604 660,872.953607014714 690,836.5805400557675 750,836.5805400557675"></polygon><image x="657" y="904.6997409326068" width="126" height="83" xlink:href="http://localhost:3000//game_images/hex_ore_01.png" /><polygon stroke="black" stroke-opacity="0.3" stroke-width="1" fill-opacity="0" points="780,945.6997409326068 750,982.0728078915532 690,982.0728078915532 660,945.6997409326068 690,909.3266739736604 750,909.3266739736604"></polygon><image x="747" y="359.1037365484106" width="126" height="83" xlink:href="http://localhost:3000//game_images/hex_lumber_01.png" /><polygon stroke="black" stroke-opacity="0.3" stroke-width="1" fill-opacity="0" points="870,400.1037365484106 840,436.47680350735703 780,436.47680350735703 750,400.1037365484106 780,363.7306695894642 840,363.7306695894642"></polygon><image x="747" y="431.8498704663034" width="126" height="83" xlink:href="http://localhost:3000//game_images/hex_glass_01.png" /><polygon stroke="black" stroke-opacity="0.3" stroke-width="1" fill-opacity="0" points="870,472.8498704663034 840,509.2229374252498 780,509.2229374252498 750,472.8498704663034 780,436.476803507357 840,436.476803507357"></polygon><image x="747" y="504.59600438419625" width="126" height="83" xlink:href="http://localhost:3000//game_images/hex_lumber_01.png" /><polygon stroke="black" stroke-opacity="0.3" stroke-width="1" fill-opacity="0" points="870,545.5960043841962 840,581.9690713431427 780,581.9690713431427 750,545.5960043841962 780,509.2229374252498 840,509.2229374252498"></polygon><image x="747" y="577.3421383020891" width="126" height="83" xlink:href="http://localhost:3000//game_images/hex_grain_02.png" /><polygon stroke="black" stroke-opacity="0.3" stroke-width="1" fill-opacity="0" points="870,618.3421383020891 840,654.7152052610355 780,654.7152052610355 750,618.3421383020891 780,581.9690713431427 840,581.9690713431427"></polygon><image x="747" y="650.088272219982" width="126" height="83" xlink:href="http://localhost:3000//game_images/hex_wool_01.png" /><polygon stroke="black" stroke-opacity="0.3" stroke-width="1" fill-opacity="0" points="870,691.088272219982 840,727.4613391789284 780,727.4613391789284 750,691.088272219982 780,654.7152052610355 840,654.7152052610355"></polygon><image x="747" y="722.8344061378748" width="126" height="83" xlink:href="http://localhost:3000//game_images/hex_lumber_01.png" /><polygon stroke="black" stroke-opacity="0.3" stroke-width="1" fill-opacity="0" points="870,763.8344061378748 840,800.2074730968212 780,800.2074730968212 750,763.8344061378748 780,727.4613391789284 840,727.4613391789284"></polygon><image x="747" y="795.5805400557676" width="126" height="83" xlink:href="http://localhost:3000//game_images/hex_grain_01.png" /><polygon stroke="black" stroke-opacity="0.3" stroke-width="1" fill-opacity="0" points="870,836.5805400557676 840,872.9536070147141 780,872.9536070147141 750,836.5805400557676 780,800.2074730968212 840,800.2074730968212"></polygon><image x="747" y="868.3266739736604" width="126" height="83" xlink:href="http://localhost:3000//game_images/hex_grain_03.png" /><polygon stroke="black" stroke-opacity="0.3" stroke-width="1" fill-opacity="0" points="870,909.3266739736604 840,945.6997409326068 780,945.6997409326068 750,909.3266739736604 780,872.953607014714 840,872.953607014714"></polygon><image x="747" y="941.0728078915532" width="126" height="83" xlink:href="http://localhost:3000//game_images/hex_lumber_01.png" /><polygon stroke="black" stroke-opacity="0.3" stroke-width="1" fill-opacity="0" points="870,982.0728078915532 840,1018.4458748504996 780,1018.4458748504996 750,982.0728078915532 780,945.6997409326068 840,945.6997409326068"></polygon></g></svg>