<svg width="930" height="1054.8189418094462" version="1.1" xmlns="http://www.w3.org/2000/svg" xmlns:xlink= "http://www.w3.org/1999/xlink"><g transform="translate(60,36.37306695894642)"><image x="-63" y="-41" width="126" height="83" xlink:href="http://localhost:3000//game_images/hex_clay_large_01.png" /><polygon stroke="black" stroke-opacity="0.3" stroke-width="1" fill-opacity="0" points="60,0 30.000000000000007,36.37306695894642 -29.999999999999986,36.373066958946424 -60,5.1433466860539845e-15 -30.00000000000003,-36.37306695894641 29.99999999999996,-36.37306695894644"></polygon><image x="27" y="-4.626933041053583" width="126" height="83" xlink:href="http://localhost:3000//game_images/hex_grain_02.png" /><polygon stroke="black" stroke-opacity="0.3" stroke-width="1" fill-opacity="0" points="150,36.37306695894642 120,72.74613391789283 60.000000000000014,72.74613391789285 30,36.373066958946424 59.99999999999997,7.105427357601002e-15 119.99999999999996,-2.1316282072803006e-14"></polygon><image x="117" y="31.746133917892834" width="126" height="83" xlink:href="http://localhost:3000//game_images/hex_lumber_large_01.png" /><polygon stroke="black" stroke-opacity="0.3" stroke-width="1" fill-opacity="0" points="240,72.74613391789283 210,109.11920087683924 150,109.11920087683926 120,72.74613391789283 149.99999999999997,36.373066958946424 209.99999999999997,36.373066958946396"></polygon><image x="207" y="68.11920087683924" width="126" height="83" xlink:href="http://localhost:3000//game_images/hex_grain_02.png" /><polygon stroke="black" stroke-opacity="0.3" stroke-width="1" fill-opacity="0" points="330,109.11920087683924 300,145.49226783578567 240,145.49226783578567 210,109.11920087683924 239.99999999999997,72.74613391789283 299.99999999999994,72.7461339178928"></polygon><image x="297" y="104.49226783578567" width="126" height="83" xlink:href="http://localhost:3000//game_images/hex_lumber_01.png" /><polygon stroke="black" stroke-opacity="0.3" stroke-width="1" fill-opacity="0" points="420,145.49226783578567 390,181.8653347947321 330,181.8653347947321 300,145.49226783578567 330,109.11920087683926 389.99999999999994,109.11920087683923"></polygon><image x="387" y="140.8653347947321" width="126" height="83" xlink:href="http://localhost:3000//game_images/hex_lumber_01.png" /><polygon stroke="black" stroke-opacity="0.3" stroke-width="1" fill-opacity="0" points="510,181.8653347947321 480,218.23840175367852 420,218.23840175367852 390,181.8653347947321 420,145.4922678357857 479.99999999999994,145.49226783578564"></polygon><image x="477" y="177.2384017536785" width="126" height="83" xlink:href="http://localhost:3000//game_images/hex_ore_01.png" /><polygon stroke="black" stroke-opacity="0.3" stroke-width="1" fill-opacity="0" points="600,218.2384017536785 570,254.6114687126249 510,254.6114687126249 480,218.2384017536785 510,181.86533479473206 570,181.86533479473206"></polygon><image x="567" y="213.6114687126249" width="126" height="83" xlink:href="http://localhost:3000//game_images/hex_grain_02.png" /><polygon stroke="black" stroke-opacity="0.3" stroke-width="1" fill-opacity="0" points="690,254.6114687126249 660,290.98453567157134 600,290.98453567157134 570,254.6114687126249 600,218.2384017536785 660,218.2384017536785"></polygon><image x="657" y="249.98453567157134" width="126" height="83" xlink:href="http://localhost:3000//game_images/hex_glass_01.png" /><polygon stroke="black" stroke-opacity="0.3" stroke-width="1" fill-opacity="0" points="780,290.98453567157134 750,327.35760263051776 690,327.35760263051776 660,290.98453567157134 690,254.6114687126249 750,254.6114687126249"></polygon><image x="747" y="286.35760263051776" width="126" height="83" xlink:href="http://localhost:3000//game_images/hex_lumber_01.png" /><polygon stroke="black" stroke-opacity="0.3" stroke-width="1" fill-opacity="0" points="870,327.35760263051776 840,363.7306695894642 780,363.7306695894642 750,327.35760263051776 780,290.98453567157134 840,290.98453567157134"></polygon></g></svg>