<svg width="930" height="1054.8189418094462" version="1.1" xmlns="http://www.w3.org/2000/svg" xmlns:xlink= "http://www.w3.org/1999/xlink"><g transform="translate(60,36.37306695894642)"><image x="-63" y="-41" width="126" height="83" xlink:href="http://localhost:3000//game_images/hex_lumber_01.png" /><polygon stroke="black" stroke-opacity="0.3" stroke-width="1" fill-opacity="0" points="60,0 30.000000000000007,36.37306695894642 -29.999999999999986,36.373066958946424 -60,5.1433466860539845e-15 -30.00000000000003,-36.37306695894641 29.99999999999996,-36.37306695894644"></polygon><image x="-63" y="31.746133917892834" width="126" height="83" xlink:href="http://localhost:3000//game_images/hex_grain_02.png" /><polygon stroke="black" stroke-opacity="0.3" stroke-width="1" fill-opacity="0" points="60,72.74613391789283 30.000000000000007,109.11920087683924 -29.999999999999986,109.11920087683926 -60,72.74613391789283 -30.00000000000003,36.373066958946424 29.99999999999996,36.373066958946396"></polygon><image x="-63" y="104.49226783578567" width="126" height="83" xlink:href="http://localhost:3000//game_images/hex_lumber_01.png" /><polygon stroke="black" stroke-opacity="0.3" stroke-width="1" fill-opacity="0" points="60,145.49226783578567 30.000000000000007,181.8653347947321 -29.999999999999986,181.8653347947321 -60,145.49226783578567 -30.00000000000003,109.11920087683926 29.99999999999996,109.11920087683923"></polygon><image x="-63" y="177.2384017536785" width="126" height="83" xlink:href="http://localhost:3000//game_images/hex_grain_03.png" /><polygon stroke="black" stroke-opacity="0.3" stroke-width="1" fill-opacity="0" points="60,218.2384017536785 30.000000000000007,254.6114687126249 -29.999999999999986,254.6114687126249 -60,218.2384017536785 -30.00000000000003,181.86533479473206 29.99999999999996,181.86533479473206"></polygon><image x="-63" y="249.98453567157134" width="126" height="83" xlink:href="http://localhost:3000//game_images/hex_grain_03.png" /><polygon stroke="black" stroke-opacity="0.3" stroke-width="1" fill-opacity="0" points="60,290.98453567157134 30.000000000000007,327.35760263051776 -29.999999999999986,327.35760263051776 -60,290.98453567157134 -30.00000000000003,254.6114687126249 29.99999999999996,254.6114687126249"></polygon><image x="-63" y="322.7306695894642" width="126" height="83" xlink:href="http://localhost:3000//game_images/hex_grain_02.png" /><polygon stroke="black" stroke-opacity="0.3" stroke-width="1" fill-opacity="0" points="60,363.7306695894642 30.000000000000007,400.1037365484106 -29.999999999999986,400.1037365484106 -60,363.7306695894642 -30.00000000000003,327.35760263051776 29.99999999999996,327.35760263051776"></polygon><image x="-63" y="395.476803507357" width="126" height="83" xlink:href="http://localhost:3000//game_images/hex_lumber_01.png" /><polygon stroke="black" stroke-opacity="0.3" stroke-width="1" fill-opacity="0" points="60,436.476803507357 30.000000000000007,472.8498704663034 -29.999999999999986,472.8498704663034 -60,436.476803507357 -30.00000000000003,400.10373654841055 29.99999999999996,400.10373654841055"></polygon><image x="-63" y="468.2229374252498" width="126" height="83" xlink:href="http://localhost:3000//game_images/hex_grain_03.png" /><polygon stroke="black" stroke-opacity="0.3" stroke-width="1" fill-opacity="0" points="60,509.2229374252498 30.000000000000007,545.5960043841962 -29.999999999999986,545.5960043841962 -60,509.2229374252498 -30.00000000000003,472.8498704663034 29.99999999999996,472.8498704663034"></polygon><image x="-63" y="540.9690713431427" width="126" height="83" xlink:href="http://localhost:3000//game_images/hex_ore_01.png" /><polygon stroke="black" stroke-opacity="0.3" stroke-width="1" fill-opacity="0" points="60,581.9690713431427 30.000000000000007,618.3421383020891 -29.999999999999986,618.3421383020891 -60,581.9690713431427 -30.00000000000003,545.5960043841962 29.99999999999996,545.5960043841962"></polygon><image x="-63" y="613.7152052610355" width="126" height="83" xlink:href="http://localhost:3000//game_images/hex_grain_03.png" /><polygon stroke="black" stroke-opacity="0.3" stroke-width="1" fill-opacity="0" points="60,654.7152052610355 30.000000000000007,691.088272219982 -29.999999999999986,691.088272219982 -60,654.7152052610355 -30.00000000000003,618.3421383020891 29.99999999999996,618.3421383020891"></polygon><image x="27" y="-4.626933041053583" width="126" height="83" xlink:href="http://localhost:3000//game_images/hex_grain_03.png" /><polygon stroke="black" stroke-opacity="0.3" stroke-width="1" fill-opacity="0" points="150,36.37306695894642 120,72.74613391789283 60.000000000000014,72.74613391789285 30,36.373066958946424 59.99999999999997,7.105427357601002e-15 119.99999999999996,-2.1316282072803006e-14"></polygon><image x="27" y="68.11920087683924" width="126" height="83" xlink:href="http://localhost:3000//game_images/hex_grain_01.png" /><polygon stroke="black" stroke-opacity="0.3" stroke-width="1" fill-opacity="0" points="150,109.11920087683924 120,145.49226783578567 60.000000000000014,145.49226783578567 30,109.11920087683924 59.99999999999997,72.74613391789283 119.99999999999996,72.7461339178928"></polygon><image x="27" y="140.8653347947321" width="126" height="83" xlink:href="http://localhost:3000//game_images/hex_lumber_01.png" /><polygon stroke="black" stroke-opacity="0.3" stroke-width="1" fill-opacity="0" points="150,181.8653347947321 120,218.23840175367852 60.000000000000014,218.23840175367852 30,181.8653347947321 59.99999999999997,145.4922678357857 119.99999999999996,145.49226783578564"></polygon><image x="27" y="213.6114687126249" width="126" height="83" xlink:href="http://localhost:3000//game_images/hex_lumber_01.png" /><polygon stroke="black" stroke-opacity="0.3" stroke-width="1" fill-opacity="0" points="150,254.6114687126249 120,290.98453567157134 60.000000000000014,290.98453567157134 30,254.6114687126249 59.99999999999997,218.2384017536785 119.99999999999996,218.2384017536785"></polygon><image x="27" y="286.35760263051776" width="126" height="83" xlink:href="http://localhost:3000//game_images/hex_grain_02.png" /><polygon stroke="black" stroke-opacity="0.3" stroke-width="1" fill-opacity="0" points="150,327.35760263051776 120,363.7306695894642 60.000000000000014,363.7306695894642 30,327.35760263051776 59.99999999999997,290.98453567157134 119.99999999999996,290.98453567157134"></polygon><image x="27" y="359.1037365484106" width="126" height="83" xlink:href="http://localhost:3000//game_images/hex_grain_01.png" /><polygon stroke="black" stroke-opacity="0.3" stroke-width="1" fill-opacity="0" points="150,400.1037365484106 120,436.47680350735703 60.000000000000014,436.47680350735703 30,400.1037365484106 59.99999999999997,363.7306695894642 119.99999999999996,363.7306695894642"></polygon><image x="27" y="431.8498704663034" width="126" height="83" xlink:href="http://localhost:3000//game_images/hex_grain_02.png" /><polygon stroke="black" stroke-opacity="0.3" stroke-width="1" fill-opacity="0" points="150,472.8498704663034 120,509.2229374252498 60.000000000000014,509.2229374252498 30,472.8498704663034 59.99999999999997,436.476803507357 119.99999999999996,436.476803507357"></polygon><image x="27" y="504.59600438419625" width="126" height="83" xlink:href="http://localhost:3000//game_images/hex_wool_large_01.png" /><polygon stroke="black" stroke-opacity="0.3" stroke-width="1" fill-opacity="0" points="150,545.5960043841962 120,581.9690713431427 60.000000000000014,581.9690713431427 30,545.5960043841962 59.99999999999997,509.2229374252498 119.99999999999996,509.2229374252498"></polygon><image x="27" y="577.3421383020891" width="126" height="83" xlink:href="http://localhost:3000//game_images/hex_wool_01.png" /><polygon stroke="black" stroke-opacity="0.3" stroke-width="1" fill-opacity="0" points="150,618.3421383020891 120,654.7152052610355 60.000000000000014,654.7152052610355 30,618.3421383020891 59.99999999999997,581.9690713431427 119.99999999999996,581.9690713431427"></polygon><image x="27" y="650.088272219982" width="126" height="83" xlink:href="http://localhost:3000//game_images/hex_wool_01.png" /><polygon stroke="black" stroke-opacity="0.3" stroke-width="1" fill-opacity="0" points="150,691.088272219982 120,727.4613391789284 60.000000000000014,727.4613391789284 30,691.088272219982 59.99999999999997,654.7152052610355 119.99999999999996,654.7152052610355"></polygon><image x="117" y="31.746133917892834" width="126" height="83" xlink:href="http://localhost:3000//game_images/hex_lumber_01.png" /><polygon stroke="black" stroke-opacity="0.3" stroke-width="1" fill-opacity="0" points="240,72.74613391789283 210,109.11920087683924 150,109.11920087683926 120,72.74613391789283 149.99999999999997,36.373066958946424 209.99999999999997,36.373066958946396"></polygon><image x="117" y="104.49226783578567" width="126" height="83" xlink:href="http://localhost:3000//game_images/hex_ore_01.png" /><polygon stroke="black" stroke-opacity="0.3" stroke-width="1" fill-opacity="0" points="240,145.49226783578567 210,181.8653347947321 150,181.8653347947321 120,145.49226783578567 149.99999999999997,109.11920087683926 209.99999999999997,109.11920087683923"></polygon><image x="117" y="177.2384017536785" width="126" height="83" xlink:href="http://localhost:3000//game_images/hex_grain_01.png" /><polygon stroke="black" stroke-opacity="0.3" stroke-width="1" fill-opacity="0" points="240,218.2384017536785 210,254.6114687126249 150,254.6114687126249 120,218.2384017536785 149.99999999999997,181.86533479473206 209.99999999999997,181.86533479473206"></polygon><image x="117" y="249.98453567157134" width="126" height="83" xlink:href="http://localhost:3000//game_images/hex_lumber_01.png" /><polygon stroke="black" stroke-opacity="0.3" stroke-width="1" fill-opacity="0" points="240,290.98453567157134 210,327.35760263051776 150,327.35760263051776 120,290.98453567157134 149.99999999999997,254.6114687126249 209.99999999999997,254.6114687126249"></polygon><image x="117" y="322.7306695894642" width="126" height="83" xlink:href="http://localhost:3000//game_images/hex_ore_01.png" /><polygon stroke="black" stroke-opacity="0.3" stroke-width="1" fill-opacity="0" points="240,363.7306695894642 210,400.1037365484106 150,400.1037365484106 120,363.7306695894642 149.99999999999997,327.35760263051776 209.99999999999997,327.35760263051776"></polygon><image x="117" y="395.476803507357" width="126" height="83" xlink:href="http://localhost:3000//game_images/hex_lumber_01.png" /><polygon stroke="black" stroke-opacity="0.3" stroke-width="1" fill-opacity="0" points="240,436.476803507357 210,472.8498704663034 150,472.8498704663034 120,436.476803507357 149.99999999999997,400.10373654841055 209.99999999999997,400.10373654841055"></polygon><image x="117" y="468.2229374252498" width="126" height="83" xlink:href="http://localhost:3000//game_images/hex_grain_03.png" /><polygon stroke="black" stroke-opacity="0.3" stroke-width="1" fill-opacity="0" points="240,509.2229374252498 210,545.5960043841962 150,545.5960043841962 120,509.2229374252498 149.99999999999997,472.8498704663034 209.99999999999997,472.8498704663034"></polygon><image x="117" y="540.9690713431427" width="126" height="83" xlink:href="http://localhost:3000//game_images/hex_grain_02.png" /><polygon stroke="black" stroke-opacity="0.3" stroke-width="1" fill-opacity="0" points="240,581.9690713431427 210,618.3421383020891 150,618.3421383020891 120,581.9690713431427 149.99999999999997,545.5960043841962 209.99999999999997,545.5960043841962"></polygon><image x="117" y="613.7152052610355" width="126" height="83" xlink:href="http://localhost:3000//game_images/hex_grain_01.png" /><polygon stroke="black" stroke-opacity="0.3" stroke-width="1" fill-opacity="0" points="240,654.7152052610355 210,691.088272219982 150,691.088272219982 120,654.7152052610355 149.99999999999997,618.3421383020891 209.99999999999997,618.3421383020891"></polygon><image x="207" y="68.11920087683924" width="126" height="83" xlink:href="http://localhost:3000//game_images/hex_wool_large_01.png" /><polygon stroke="black" stroke-opacity="0.3" stroke-width="1" fill-opacity="0" points="330,109.11920087683924 300,145.49226783578567 240,145.49226783578567 210,109.11920087683924 239.99999999999997,72.74613391789283 299.99999999999994,72.7461339178928"></polygon><image x="207" y="140.8653347947321" width="126" height="83" xlink:href="http://localhost:3000//game_images/hex_wool_01.png" /><polygon stroke="black" stroke-opacity="0.3" stroke-width="1" fill-opacity="0" points="330,181.8653347947321 300,218.23840175367852 240,218.23840175367852 210,181.8653347947321 239.99999999999997,145.4922678357857 299.99999999999994,145.49226783578564"></polygon><image x="207" y="213.6114687126249" width="126" height="83" xlink:href="http://localhost:3000//game_images/hex_grain_02.png" /><polygon stroke="black" stroke-opacity="0.3" stroke-width="1" fill-opacity="0" points="330,254.6114687126249 300,290.98453567157134 240,290.98453567157134 210,254.6114687126249 239.99999999999997,218.2384017536785 299.99999999999994,218.2384017536785"></polygon><image x="207" y="286.35760263051776" width="126" height="83" xlink:href="http://localhost:3000//game_images/hex_grain_01.png" /><polygon stroke="black" stroke-opacity="0.3" stroke-width="1" fill-opacity="0" points="330,327.35760263051776 300,363.7306695894642 240,363.7306695894642 210,327.35760263051776 239.99999999999997,290.98453567157134 299.99999999999994,290.98453567157134"></polygon><image x="207" y="359.1037365484106" width="126" height="83" xlink:href="http://localhost:3000//game_images/hex_ore_01.png" /><polygon stroke="black" stroke-opacity="0.3" stroke-width="1" fill-opacity="0" points="330,400.1037365484106 300,436.47680350735703 240,436.47680350735703 210,400.1037365484106 239.99999999999997,363.7306695894642 299.99999999999994,363.7306695894642"></polygon><image x="207" y="431.8498704663034" width="126" height="83" xlink:href="http://localhost:3000//game_images/hex_lumber_01.png" /><polygon stroke="black" stroke-opacity="0.3" stroke-width="1" fill-opacity="0" points="330,472.8498704663034 300,509.2229374252498 240,509.2229374252498 210,472.8498704663034 239.99999999999997,436.476803507357 299.99999999999994,436.476803507357"></polygon><image x="207" y="504.59600438419625" width="126" height="83" xlink:href="http://localhost:3000//game_images/hex_clay_01.png" /><polygon stroke="black" stroke-opacity="0.3" stroke-width="1" fill-opacity="0" points="330,545.5960043841962 300,581.9690713431427 240,581.9690713431427 210,545.5960043841962 239.99999999999997,509.2229374252498 299.99999999999994,509.2229374252498"></polygon><image x="207" y="577.3421383020891" width="126" height="83" xlink:href="http://localhost:3000//game_images/hex_wool_01.png" /><polygon stroke="black" stroke-opacity="0.3" stroke-width="1" fill-opacity="0" points="330,618.3421383020891 300,654.7152052610355 240,654.7152052610355 210,618.3421383020891 239.99999999999997,581.9690713431427 299.99999999999994,581.9690713431427"></polygon><image x="297" y="104.49226783578567" width="126" height="83" xlink:href="http://localhost:3000//game_images/hex_wool_large_01.png" /><polygon stroke="black" stroke-opacity="0.3" stroke-width="1" fill-opacity="0" points="420,145.49226783578567 390,181.8653347947321 330,181.8653347947321 300,145.49226783578567 330,109.11920087683926 389.99999999999994,109.11920087683923"></polygon><image x="297" y="177.2384017536785" width="126" height="83" xlink:href="http://localhost:3000//game_images/hex_lumber_01.png" /><polygon stroke="black" stroke-opacity="0.3" stroke-width="1" fill-opacity="0" points="420,218.2384017536785 390,254.6114687126249 330,254.6114687126249 300,218.2384017536785 330,181.86533479473206 389.99999999999994,181.86533479473206"></polygon><image x="297" y="249.98453567157134" width="126" height="83" xlink:href="http://localhost:3000//game_images/hex_grain_01.png" /><polygon stroke="black" stroke-opacity="0.3" stroke-width="1" fill-opacity="0" points="420,290.98453567157134 390,327.35760263051776 330,327.35760263051776 300,290.98453567157134 330,254.6114687126249 389.99999999999994,254.6114687126249"></polygon><image x="297" y="322.7306695894642" width="126" height="83" xlink:href="http://localhost:3000//game_images/hex_grain_01.png" /><polygon stroke="black" stroke-opacity="0.3" stroke-width="1" fill-opacity="0" points="420,363.7306695894642 390,400.1037365484106 330,400.1037365484106 300,363.7306695894642 330,327.35760263051776 389.99999999999994,327.35760263051776"></polygon><image x="297" y="395.476803507357" width="126" height="83" xlink:href="http://localhost:3000//game_images/hex_grain_02.png" /><polygon stroke="black" stroke-opacity="0.3" stroke-width="1" fill-opacity="0" points="420,436.476803507357 390,472.8498704663034 330,472.8498704663034 300,436.476803507357 330,400.10373654841055 389.99999999999994,400.10373654841055"></polygon><image x="297" y="468.2229374252498" width="126" height="83" xlink:href="http://localhost:3000//game_images/hex_grain_01.png" /><polygon stroke="black" stroke-opacity="0.3" stroke-width="1" fill-opacity="0" points="420,509.2229374252498 390,545.5960043841962 330,545.5960043841962 300,509.2229374252498 330,472.8498704663034 389.99999999999994,472.8498704663034"></polygon><image x="297" y="540.9690713431427" width="126" height="83" xlink:href="http://localhost:3000//game_images/hex_glass_01.png" /><polygon stroke="black" stroke-opacity="0.3" stroke-width="1" fill-opacity="0" points="420,581.9690713431427 390,618.3421383020891 330,618.3421383020891 300,581.9690713431427 330,545.5960043841962 389.99999999999994,545.5960043841962"></polygon><image x="387" y="140.8653347947321" width="126" height="83" xlink:href="http://localhost:3000//game_images/hex_grain_01.png" /><polygon stroke="black" stroke-opacity="0.3" stroke-width="1" fill-opacity="0" points="510,181.8653347947321 480,218.23840175367852 420,218.23840175367852 390,181.8653347947321 420,145.4922678357857 479.99999999999994,145.49226783578564"></polygon><image x="387" y="213.6114687126249" width="126" height="83" xlink:href="http://localhost:3000//game_images/hex_lumber_01.png" /><polygon stroke="black" stroke-opacity="0.3" stroke-width="1" fill-opacity="0" points="510,254.6114687126249 480,290.98453567157134 420,290.98453567157134 390,254.6114687126249 420,218.2384017536785 479.99999999999994,218.2384017536785"></polygon><image x="387" y="286.35760263051776" width="126" height="83" xlink:href="http://localhost:3000//game_images/hex_wool_01.png" /><polygon stroke="black" stroke-opacity="0.3" stroke-width="1" fill-opacity="0" points="510,327.35760263051776 480,363.7306695894642 420,363.7306695894642 390,327.35760263051776 420,290.98453567157134 479.99999999999994,290.98453567157134"></polygon><image x="387" y="359.1037365484106" width="126" height="83" xlink:href="http://localhost:3000//game_images/hex_lumber_01.png" /><polygon stroke="black" stroke-opacity="0.3" stroke-width="1" fill-opacity="0" points="510,400.1037365484106 480,436.47680350735703 420,436.47680350735703 390,400.1037365484106 420,363.7306695894642 479.99999999999994,363.7306695894642"></polygon><image x="387" y="431.8498704663034" width="126" height="83" xlink:href="http://localhost:3000//game_images/hex_grain_03.png" /><polygon stroke="black" stroke-opacity="0.3" stroke-width="1" fill-opacity="0" points="510,472.8498704663034 480,509.2229374252498 420,509.2229374252498 390,472.8498704663034 420,436.476803507357 479.99999999999994,436.476803507357"></polygon><image x="387" y="504.59600438419625" width="126" height="83" xlink:href="http://localhost:3000//game_images/hex_lumber_01.png" /><polygon stroke="black" stroke-opacity="0.3" stroke-width="1" fill-opacity="0" points="510,545.5960043841962 480,581.9690713431427 420,581.9690713431427 390,545.5960043841962 420,509.2229374252498 479.99999999999994,509.2229374252498"></polygon><image x="477" y="177.2384017536785" width="126" height="83" xlink:href="http://localhost:3000//game_images/hex_grain_02.png" /><polygon stroke="black" stroke-opacity="0.3" stroke-width="1" fill-opacity="0" points="600,218.2384017536785 570,254.6114687126249 510,254.6114687126249 480,218.2384017536785 510,181.86533479473206 570,181.86533479473206"></polygon><image x="477" y="249.98453567157134" width="126" height="83" xlink:href="http://localhost:3000//game_images/hex_grain_02.png" /><polygon stroke="black" stroke-opacity="0.3" stroke-width="1" fill-opacity="0" points="600,290.98453567157134 570,327.35760263051776 510,327.35760263051776 480,290.98453567157134 510,254.6114687126249 570,254.6114687126249"></polygon><image x="477" y="322.7306695894642" width="126" height="83" xlink:href="http://localhost:3000//game_images/hex_grain_03.png" /><polygon stroke="black" stroke-opacity="0.3" stroke-width="1" fill-opacity="0" points="600,363.7306695894642 570,400.1037365484106 510,400.1037365484106 480,363.7306695894642 510,327.35760263051776 570,327.35760263051776"></polygon><image x="477" y="395.476803507357" width="126" height="83" xlink:href="http://localhost:3000//game_images/hex_lumber_01.png" /><polygon stroke="black" stroke-opacity="0.3" stroke-width="1" fill-opacity="0" points="600,436.476803507357 570,472.8498704663034 510,472.8498704663034 480,436.476803507357 510,400.10373654841055 570,400.10373654841055"></polygon><image x="477" y="468.2229374252498" width="126" height="83" xlink:href="http://localhost:3000//game_images/hex_lumber_01.png" /><polygon stroke="black" stroke-opacity="0.3" stroke-width="1" fill-opacity="0" points="600,509.2229374252498 570,545.5960043841962 510,545.5960043841962 480,509.2229374252498 510,472.8498704663034 570,472.8498704663034"></polygon><image x="567" y="213.6114687126249" width="126" height="83" xlink:href="http://localhost:3000//game_images/hex_grain_03.png" /><polygon stroke="black" stroke-opacity="0.3" stroke-width="1" fill-opacity="0" points="690,254.6114687126249 660,290.98453567157134 600,290.98453567157134 570,254.6114687126249 600,218.2384017536785 660,218.2384017536785"></polygon><image x="567" y="286.35760263051776" width="126" height="83" xlink:href="http://localhost:3000//game_images/hex_ore_large_01.png" /><polygon stroke="black" stroke-opacity="0.3" stroke-width="1" fill-opacity="0" points="690,327.35760263051776 660,363.7306695894642 600,363.7306695894642 570,327.35760263051776 600,290.98453567157134 660,290.98453567157134"></polygon><image x="567" y="359.1037365484106" width="126" height="83" xlink:href="http://localhost:3000//game_images/hex_grain_01.png" /><polygon stroke="black" stroke-opacity="0.3" stroke-width="1" fill-opacity="0" points="690,400.1037365484106 660,436.47680350735703 600,436.47680350735703 570,400.1037365484106 600,363.7306695894642 660,363.7306695894642"></polygon><image x="567" y="431.8498704663034" width="126" height="83" xlink:href="http://localhost:3000//game_images/hex_grain_03.png" /><polygon stroke="black" stroke-opacity="0.3" stroke-width="1" fill-opacity="0" points="690,472.8498704663034 660,509.2229374252498 600,509.2229374252498 570,472.8498704663034 600,436.476803507357 660,436.476803507357"></polygon><image x="657" y="249.98453567157134" width="126" height="83" xlink:href="http://localhost:3000//game_images/hex_grain_03.png" /><polygon stroke="black" stroke-opacity="0.3" stroke-width="1" fill-opacity="0" points="780,290.98453567157134 750,327.35760263051776 690,327.35760263051776 660,290.98453567157134 690,254.6114687126249 750,254.6114687126249"></polygon><image x="657" y="322.7306695894642" width="126" height="83" xlink:href="http://localhost:3000//game_images/hex_grain_01.png" /><polygon stroke="black" stroke-opacity="0.3" stroke-width="1" fill-opacity="0" points="780,363.7306695894642 750,400.1037365484106 690,400.1037365484106 660,363.7306695894642 690,327.35760263051776 750,327.35760263051776"></polygon><image x="657" y="395.476803507357" width="126" height="83" xlink:href="http://localhost:3000//game_images/hex_grain_01.png" /><polygon stroke="black" stroke-opacity="0.3" stroke-width="1" fill-opacity="0" points="780,436.476803507357 750,472.8498704663034 690,472.8498704663034 660,436.476803507357 690,400.10373654841055 750,400.10373654841055"></polygon><image x="747" y="286.35760263051776" width="126" height="83" xlink:href="http://localhost:3000//game_images/hex_lumber_01.png" /><polygon stroke="black" stroke-opacity="0.3" stroke-width="1" fill-opacity="0" points="870,327.35760263051776 840,363.7306695894642 780,363.7306695894642 750,327.35760263051776 780,290.98453567157134 840,290.98453567157134"></polygon><image x="747" y="359.1037365484106" width="126" height="83" xlink:href="http://localhost:3000//game_images/hex_grain_03.png" /><polygon stroke="black" stroke-opacity="0.3" stroke-width="1" fill-opacity="0" points="870,400.1037365484106 840,436.47680350735703 780,436.47680350735703 750,400.1037365484106 780,363.7306695894642 840,363.7306695894642"></polygon></g></svg>