<svg width="930" height="1054.8189418094462" version="1.1" xmlns="http://www.w3.org/2000/svg" xmlns:xlink= "http://www.w3.org/1999/xlink"><g transform="translate(60,36.37306695894642)"><image x="-63" y="-41" width="126" height="83" xlink:href="http://localhost:3000//game_images/hex_grain_02.png" /><polygon stroke="black" stroke-opacity="0.3" stroke-width="1" fill-opacity="0" points="60,0 30.000000000000007,36.37306695894642 -29.999999999999986,36.373066958946424 -60,5.1433466860539845e-15 -30.00000000000003,-36.37306695894641 29.99999999999996,-36.37306695894644"></polygon><image x="-63" y="31.746133917892834" width="126" height="83" xlink:href="http://localhost:3000//game_images/hex_lumber_01.png" /><polygon stroke="black" stroke-opacity="0.3" stroke-width="1" fill-opacity="0" points="60,72.74613391789283 30.000000000000007,109.11920087683924 -29.999999999999986,109.11920087683926 -60,72.74613391789283 -30.00000000000003,36.373066958946424 29.99999999999996,36.373066958946396"></polygon><image x="-63" y="104.49226783578567" width="126" height="83" xlink:href="http://localhost:3000//game_images/hex_grain_03.png" /><polygon stroke="black" stroke-opacity="0.3" stroke-width="1" fill-opacity="0" points="60,145.49226783578567 30.000000000000007,181.8653347947321 -29.999999999999986,181.8653347947321 -60,145.49226783578567 -30.00000000000003,109.11920087683926 29.99999999999996,109.11920087683923"></polygon><image x="-63" y="177.2384017536785" width="126" height="83" xlink:href="http://localhost:3000//game_images/hex_grain_02.png" /><polygon stroke="black" stroke-opacity="0.3" stroke-width="1" fill-opacity="0" points="60,218.2384017536785 30.000000000000007,254.6114687126249 -29.999999999999986,254.6114687126249 -60,218.2384017536785 -30.00000000000003,181.86533479473206 29.99999999999996,181.86533479473206"></polygon><image x="-63" y="249.98453567157134" width="126" height="83" xlink:href="http://localhost:3000//game_images/hex_ore_01.png" /><polygon stroke="black" stroke-opacity="0.3" stroke-width="1" fill-opacity="0" points="60,290.98453567157134 30.000000000000007,327.35760263051776 -29.999999999999986,327.35760263051776 -60,290.98453567157134 -30.00000000000003,254.6114687126249 29.99999999999996,254.6114687126249"></polygon><image x="-63" y="322.7306695894642" width="126" height="83" xlink:href="http://localhost:3000//game_images/hex_wool_01.png" /><polygon stroke="black" stroke-opacity="0.3" stroke-width="1" fill-opacity="0" points="60,363.7306695894642 30.000000000000007,400.1037365484106 -29.999999999999986,400.1037365484106 -60,363.7306695894642 -30.00000000000003,327.35760263051776 29.99999999999996,327.35760263051776"></polygon><image x="-63" y="395.476803507357" width="126" height="83" xlink:href="http://localhost:3000//game_images/hex_grain_03.png" /><polygon stroke="black" stroke-opacity="0.3" stroke-width="1" fill-opacity="0" points="60,436.476803507357 30.000000000000007,472.8498704663034 -29.999999999999986,472.8498704663034 -60,436.476803507357 -30.00000000000003,400.10373654841055 29.99999999999996,400.10373654841055"></polygon><image x="-63" y="468.2229374252498" width="126" height="83" xlink:href="http://localhost:3000//game_images/hex_wool_01.png" /><polygon stroke="black" stroke-opacity="0.3" stroke-width="1" fill-opacity="0" points="60,509.2229374252498 30.000000000000007,545.5960043841962 -29.999999999999986,545.5960043841962 -60,509.2229374252498 -30.00000000000003,472.8498704663034 29.99999999999996,472.8498704663034"></polygon><image x="-63" y="540.9690713431427" width="126" height="83" xlink:href="http://localhost:3000//game_images/hex_clay_01.png" /><polygon stroke="black" stroke-opacity="0.3" stroke-width="1" fill-opacity="0" points="60,581.9690713431427 30.000000000000007,618.3421383020891 -29.999999999999986,618.3421383020891 -60,581.9690713431427 -30.00000000000003,545.5960043841962 29.99999999999996,545.5960043841962"></polygon><image x="-63" y="613.7152052610355" width="126" height="83" xlink:href="http://localhost:3000//game_images/hex_grain_03.png" /><polygon stroke="black" stroke-opacity="0.3" stroke-width="1" fill-opacity="0" points="60,654.7152052610355 30.000000000000007,691.088272219982 -29.999999999999986,691.088272219982 -60,654.7152052610355 -30.00000000000003,618.3421383020891 29.99999999999996,618.3421383020891"></polygon></g></svg>